<svg xmlns="http://www.w3.org/2000/svg" fill="none" viewBox="0 0 109 112">
  <g clip-path="url(#a)">
    <mask id="b" width="110" height="114" x="-1" y="-1" maskUnits="userSpaceOnUse" style="mask-type:luminance">
      <path fill="#fff" fill-rule="evenodd" d="M60.5139 42.0564c0 1.5344-1.249 2.7801-2.7874 2.7801-1.5383 0-2.7873-1.2457-2.7873-2.7801s1.249-2.7801 2.7873-2.7801c1.5384 0 2.7874 1.2457 2.7874 2.7801Zm-14.089 60.5756c1.5384 0 2.7874 1.245 2.7874 2.78 0 1.534-1.249 2.78-2.7874 2.78-1.5383 0-2.7873-1.246-2.7873-2.78 0-1.535 1.249-2.78 2.7873-2.78Zm10.1441-7.5203h48.811c1.995 0 3.615-1.6154 3.615-3.6056 0-.7798-.249-1.4989-.665-2.0863L57.6148 1.80282c-.99-1.7217527-3.1934-2.314238-4.9146-1.326762-.5838.334222-1.0408.810232-1.3454 1.357142L.477294 89.7135c-.990032 1.7167-.3960127 3.9144 1.330196 4.9019.56356.3241 1.18296.476 1.79221.476v.0152h19.1914l-3.0615 5.2864c-1.0002 1.722-.4112 3.925 1.315 4.918 1.7211.992 3.9296.41 4.9298-1.312l6.0722-10.4875c.1117-.1621.2082-.3343.2894-.5166l25.6241-44.2642c3.5641-.157 6.4073-3.089 6.4073-6.6794 0-3.5903-3.0057-6.6895-6.7069-6.6895s-6.7068 2.9928-6.7068 6.6895c0 1.1192.2742 2.1725.7616 3.0992L26.9746 87.8904H9.84452L54.4924 10.7762l44.6479 77.1244H60.7474l10.9005-18.8279c.9951-1.7218.4113-3.9195-1.315-4.9171-1.7262-.9976-3.9347-.4102-4.9298 1.3065l-14.028 24.2362-5.1736 8.9328c-3.5691.152-6.4123 3.0839-6.4123 6.6849 0 3.6 3.0005 6.689 6.7068 6.689s6.7018-2.993 6.7018-6.689c0-1.109-.2691-2.158-.7514-3.079l4.1226-7.1253Z" clip-rule="evenodd"/>
    </mask>
    <g mask="url(#b)">
      <path fill="url(#c)" d="M109-.511475H-.512756V112H109V-.511475Z"/>
    </g>
  </g>
  <defs>
    <linearGradient id="c" x1="54.2436" x2="54.2436" y1="112" y2="-.0101361" gradientUnits="userSpaceOnUse">
      <stop stop-color="#1980F5"/>
      <stop offset="1" stop-color="#05E5C5"/>
    </linearGradient>
    <clipPath id="a">
      <path fill="#fff" d="M0 0h109v112H0z"/>
    </clipPath>
  </defs>
</svg>
