<svg xmlns="http://www.w3.org/2000/svg" fill="none" viewBox="0 0 112 112">
  <g clip-path="url(#a)">
    <mask id="b" width="113" height="114" x="0" y="-1" maskUnits="userSpaceOnUse" style="mask-type:luminance">
      <path fill="#fff" fill-rule="evenodd" d="m71.0429 38.897-9.5269-9.5274c-2.0368 1.2242-4.7208.9583-6.4767-.7977-1.7609-1.7559-2.0218-4.44-.8027-6.477l-8.6489-8.6493c-2.5385 1.781-5.9399 1.781-8.4784 0l-8.654 8.6493c1.2241 2.037.9582 4.7211-.7977 6.477-1.7559 1.756-4.4398 2.0219-6.4817.7977l-7.4901 7.4955c1.6656 2.6088 1.3596 6.1157-.918 8.3934-2.6338 2.634-6.90816 2.634-9.54198 0-2.633817-2.6339-2.633817-6.9084 0-9.5373 2.36793-2.3681 6.05528-2.6089 8.69408-.7225l7.445-7.4452c-1.2241-2.0369-.9582-4.721.7976-6.477 1.7609-1.756 4.4399-2.0219 6.4767-.8027l8.654-8.6544c-2.0218-2.87976-1.7408-6.88836.8328-9.4621 2.8846-2.884784 7.5653-2.884784 10.45 0 2.5786 2.57374 2.8545 6.58234.8328 9.4621l8.6539 8.6544c2.0368-1.2242 4.7208-.9583 6.4767.7977 1.7559 1.7559 2.0218 4.44.7977 6.477l9.5269 9.5273c1.4298-.6874 3.2007-.4315 4.3897.7525 1.51 1.5001 1.51 3.9484 0 5.4485-1.5051 1.5101-3.9482 1.5101-5.4483 0-1.1889-1.189-1.4448-2.955-.7575-4.3899m-32.1476 2.067-9.5269 9.5274c1.2191 2.0369.9582 4.721-.7977 6.4819-1.7609 1.756-4.4399 2.0169-6.4767.7927l-8.654 8.6544c1.776 2.5336 1.776 5.9351 0 8.4737l8.654 8.6544c2.0368-1.2241 4.7208-.9582 6.4767.7977 1.7559 1.756 2.0218 4.4451.7977 6.477l7.4951 7.4954c2.6087-1.6706 6.1154-1.3596 8.3981.9232 2.6338 2.6343 2.6338 6.9083 0 9.5423-2.6338 2.634-6.9081 2.634-9.542 0-2.3679-2.368-2.6037-6.056-.7224-8.694l-7.4449-7.4457c-2.0368 1.2241-4.7208.9582-6.4767-.7977-1.7609-1.756-2.0268-4.4401-.7977-6.477l-8.6539-8.6544c-2.8847 2.0269-6.88811 1.746-9.46172-.8278-2.88466-2.8848-2.88466-7.5656 0-10.4504 2.57361-2.5738 6.57702-2.8497 9.46172-.8278l8.6539-8.6544c-1.2241-2.0369-.9582-4.721.7977-6.472 1.7559-1.7609 4.4399-2.0268 6.4767-.8027l9.5269-9.5273c-.6873-1.4349-.4315-3.2009.7525-4.3899 1.505-1.5051 3.9482-1.5051 5.4533 0 1.51 1.5051 1.51 3.9484 0 5.4535-1.189 1.189-2.9549 1.4349-4.3897.7526v-.0051Zm2.0518 32.1441 9.5269 9.5273c2.0369-1.2241 4.7208-.9582 6.4767.8027 1.7559 1.756 2.0218 4.4351.7977 6.472l8.654 8.6544c2.5334-1.7811 5.9398-1.7811 8.4733 0l8.659-8.6544c-1.2241-2.0369-.9632-4.721.7927-6.472 1.7609-1.7609 4.4398-2.0268 6.4767-.8027l7.49-7.4904c-1.6655-2.6089-1.3595-6.1208.9181-8.3985 2.6338-2.6339 6.9078-2.6339 9.5468 0 2.634 2.6339 2.634 6.9084 0 9.5424-2.368 2.368-6.055 2.6088-8.694.7224l-7.4449 7.4453c1.2241 2.0369.9583 4.721-.7976 6.477-1.7559 1.7559-4.4399 2.0218-6.4767.7977l-8.654 8.6548c2.0218 2.884 1.7459 6.888-.8278 9.462-2.8846 2.884-7.5653 2.884-10.4499 0-2.5737-2.574-2.8546-6.578-.8278-9.462l-8.654-8.6548c-2.0368 1.2241-4.7208.9582-6.4767-.7927-1.7559-1.761-2.0217-4.4451-.7976-6.477l-9.5269-9.5273c-1.4348.6873-3.2058.4365-4.3897-.7526-1.5051-1.5051-1.5051-3.9484 0-5.4535 1.51-1.5051 3.9482-1.5051 5.4532 0 1.184 1.1841 1.4348 2.9551.7525 4.3899v-.01Zm9.7075-22.4411c2.9499-2.9501 7.7309-2.9501 10.6758 0 2.9499 2.95 2.9499 7.7312 0 10.6812-2.9449 2.95-7.7259 2.95-10.6758 0-2.9498-2.95-2.9498-7.7262 0-10.6812ZM11.4935 11.494c1.3044-1.2994 3.4114-1.2994 4.7108 0 1.2993 1.2994 1.2993 3.4065 0 4.711-1.2994 1.2994-3.4064 1.2994-4.7108 0-1.2993-1.2994-1.2993-3.4066 0-4.711Zm0 89.007c-1.2993-1.2994-1.2993-3.4116 0-4.711 1.3044-1.2994 3.4114-1.2994 4.7108 0 1.2993 1.3044 1.2993 3.4116 0 4.711-1.2994 1.299-3.4064 1.299-4.7108 0Zm89.0135 0c-1.2998 1.299-3.4119 1.299-4.7163 0-1.2993-1.2994-1.2993-3.4116 0-4.711 1.3044-1.2994 3.4115-1.2994 4.7163 0 1.299 1.3044 1.299 3.4116 0 4.711Zm0-89.007c1.299 1.2994 1.299 3.4065 0 4.711-1.2998 1.2994-3.4119 1.2994-4.7163 0-1.2993-1.2994-1.2993-3.4066 0-4.711 1.3044-1.2994 3.4115-1.2994 4.7163 0ZM73.0998 71.041l9.5269-9.5223c-1.2241-2.0369-.9582-4.721.7976-6.477 1.7559-1.7609 4.4399-2.0218 6.4767-.7977l8.659-8.6543c-1.7809-2.5387-1.7809-5.9402 0-8.4738l-8.659-8.6544c-2.0368 1.2242-4.7208.9583-6.4767-.8027-1.7558-1.7509-2.0217-4.435-.7976-6.4719l-7.4901-7.4955c-2.6138 1.6657-6.1205 1.3597-8.4031-.9181-2.6339-2.6339-2.6339-6.9034 0-9.54235 2.6338-2.63394 6.9081-2.63394 9.5469 0 2.3679 2.36301 2.6088 6.05554.7174 8.68945l7.45 7.4503c2.0368-1.2241 4.7208-.9633 6.4767.7977 1.7558 1.756 2.0217 4.4401.7976 6.477l8.6589 8.6544c2.88-2.0219 6.888-1.746 9.462.8278 2.884 2.8847 2.884 7.5656 0 10.4504-2.574 2.5788-6.582 2.8497-9.467.8278l-8.6539 8.6544c1.2241 2.0369.9582 4.721-.7976 6.477-1.7559 1.7559-4.4399 2.0218-6.4767.7977l-9.5269 9.5223c.6873 1.4348.4364 3.2008-.7526 4.3899-1.51 1.5101-3.9482 1.5101-5.4582 0-1.5-1.5051-1.5-3.9434 0-5.4485 1.189-1.184 2.9549-1.4399 4.3897-.7576Z" clip-rule="evenodd"/>
    </mask>
    <g mask="url(#b)">
      <path fill="url(#c)" d="M112.722-.722473H-.722412V112.717H112.722V-.722473Z"/>
    </g>
  </g>
  <defs>
    <linearGradient id="c" x1="100.512" x2="11.4995" y1="100.511" y2="11.503" gradientUnits="userSpaceOnUse">
      <stop stop-color="#1980F5"/>
      <stop offset="1" stop-color="#05E5C5"/>
    </linearGradient>
    <clipPath id="a">
      <path fill="#fff" d="M0 0h112v112H0z"/>
    </clipPath>
  </defs>
</svg>
