<svg xmlns="http://www.w3.org/2000/svg" fill="none" viewBox="0 0 124 112">
  <g clip-path="url(#a)">
    <mask id="b" width="78" height="34" x="44" y="39" maskUnits="userSpaceOnUse" style="mask-type:luminance">
      <path fill="#fff" fill-rule="evenodd" d="M116.755 47.3688c-4.311-2.4961-9.721-1.385-12.734 2.3961-6.4877 8.1309-24.2688 2.4856-30.1626-4.492-1.2039-1.4271-2.6655-2.6699-4.3743-3.6547-7.9284-4.5815-18.065-1.8642-22.6444 6.0771-4.5793 7.9413-1.8611 18.0944 6.0673 22.6812 7.0557 4.0813 15.8674 2.3751 20.9409-3.6494 5.8938-6.9829 23.6749-12.6387 30.1631-4.5078.751.9426 1.687 1.7642 2.797 2.4014 4.758 2.7489 10.841 1.1216 13.585-3.6442 2.75-4.7658 1.12-10.8588-3.638-13.6077Z" clip-rule="evenodd"/>
    </mask>
    <g mask="url(#b)">
      <path fill="url(#c)" d="M123.143 37.0366H42.2657v37.4211h80.8773V37.0366Z"/>
    </g>
    <mask id="d" width="125" height="114" x="0" y="-1" maskUnits="userSpaceOnUse" style="mask-type:luminance">
      <path fill="#fff" fill-rule="evenodd" d="M90.1256 22.66c-3.0283 1.0006-6.4615.7531-9.4373-.969-1.4038-.8109-2.5762-1.8694-3.4858-3.0912-2.5657-3.4335-6.2407-5.2924-10.5152-5.3188h-9.3742c-4.2692.0264-7.9495 1.8906-10.5152 5.3188-.9148 1.2218-2.082 2.2803-3.4858 3.0912-2.981 1.7221-6.4089 1.9696-9.4373.969-2.2502 1.127-4.0851 2.8858-5.4258 5.2135l-7.0872 12.2964c-2.082 3.6125-2.387 7.5779-.8675 11.4643.9463 2.4277.9936 5.1872 0 7.7255-1.5195 3.8864-1.2198 7.8623.8675 11.4801 1.5299 2.6541 3.0494 5.2977 4.5741 7.9519 2.6025 4.5183 6.7139 7.3251 11.8611 8.1098 1.5089.2317 3.002.7425 4.4005 1.5482 1.4038.811 2.592 1.8484 3.5384 3.0439 3.1861 3.9917 7.5551 6.1455 12.634 6.2298h7.2449c5.0736-.0895 9.4426-2.2381 12.634-6.2298.9516-1.1955 2.1398-2.2329 3.5383-3.0439 1.4038-.8109 2.8917-1.3165 4.4006-1.5482 5.1472-.7847 9.2586-3.5915 11.8611-8.1098 1.5247-2.6489 3.0492-5.2978 4.5792-7.9519 2.082-3.6126 2.382-7.5885.862-11.4801-.993-2.5383-.941-5.2978 0-7.7255 1.515-3.8864 1.215-7.857-.867-11.4643l-7.0873-12.2964c-1.3459-2.3277-3.1756-4.0865-5.4258-5.2135m-24.453 78.376h-7.3238c-5.0631.095-9.4216 2.248-12.5972 6.235-3.8223 4.792-10.6676 6.198-16.1355 3.038-5.4626-3.159-7.6708-9.8-5.4363-15.5136 1.8979-4.8606 1.5247-9.8318-1.0831-14.3502-1.5247-2.6488-3.0547-5.2924-4.5794-7.9466-2.082-3.6125-5.3679-5.8612-9.48989-6.4878-1.27233-.1949-2.52364-.6214-3.70133-1.306-5.073566-2.9333-6.81383-9.4317-3.88535-14.5187 1.67716-2.9069 4.52151-4.7185 7.59194-5.1924 4.11673-.632 7.39743-2.8753 9.47943-6.4879l7.0872-12.2964c1.7455-3.028 2.2345-6.2983 1.4563-9.5791-2.5919-5.4241-.6151-12.01731 4.6688-15.07166 5.1419-2.97537 11.614-1.55877855 15.084 3.08595 2.5499 3.40718 6.1881 5.26612 10.4152 5.32405h9.5793c4.2324-.05793 7.8759-1.9116 10.4206-5.32405 3.47-4.64472855 9.942-6.06132 15.084-3.08595 5.2891 3.05435 7.2659 9.64756 4.6687 15.07166-.7781 3.2861-.2839 6.5511 1.4563 9.5791l7.0872 12.2964c2.082 3.6126 5.363 5.8559 9.479 6.4879 3.076.4686 5.915 2.2855 7.592 5.1924 2.934 5.0818 1.194 11.5802-3.88 14.5187-1.183.6846-2.434 1.1111-3.701 1.306-4.122.6266-7.408 2.8753-9.49 6.4878-1.53 2.6489-3.06 5.2978-4.585 7.9466-2.6021 4.5236-2.9806 9.4896-1.0774 14.3502 2.2294 5.7086.0211 12.3546-5.4416 15.5136-5.4626 3.16-12.3079 1.754-16.1355-3.038-3.1808-3.987-7.5393-6.14-12.6024-6.235h-.0052Z" clip-rule="evenodd"/>
    </mask>
    <g mask="url(#d)">
      <path fill="url(#e)" d="M125.509-1.41663H-1.50369V113.464H125.509V-1.41663Z"/>
    </g>
  </g>
  <defs>
    <linearGradient id="c" x1="82.7017" x2="82.7017" y1="72.5988" y2="39.3853" gradientUnits="userSpaceOnUse">
      <stop stop-color="#1980F5"/>
      <stop offset="1" stop-color="#05E5C5"/>
    </linearGradient>
    <linearGradient id="e" x1="62.0026" x2="62.0026" y1="112.01" y2="-.00003842" gradientUnits="userSpaceOnUse">
      <stop stop-color="#1980F5"/>
      <stop offset="1" stop-color="#05E5C5"/>
    </linearGradient>
    <clipPath id="a">
      <path fill="#fff" d="M0 0h124v112H0z"/>
    </clipPath>
  </defs>
</svg>
