<svg xmlns="http://www.w3.org/2000/svg" fill="none" viewBox="0 0 121 100">
  <path stroke="#022A3A" stroke-linejoin="round" stroke-width="2.5" d="M113.109 2.63159H7.8913c-2.9055 0-5.26087 2.3564-5.26087 5.26316V76.3158c0 2.9068 2.35537 5.2632 5.26087 5.2632H113.109c2.905 0 5.261-2.3564 5.261-5.2632V7.89475c0-2.90676-2.356-5.26316-5.261-5.26316ZM52.6087 97.3685V81.579m15.7826 0v15.7895m-31.5652-.0001h47.3478M2.63043 65.7894H118.37m-60.5004 7.8948h5.2608"/>
  <path stroke="#05B444" stroke-miterlimit="10" stroke-width="2.5" d="M42.0869 15.7894v15.7895h15.7827c0-8.7105-7.0759-15.7895-15.7827-15.7895Z"/>
  <path stroke="#05B444" stroke-miterlimit="10" stroke-width="2.5" d="M52.6087 36.8421c0 8.7105-7.0759 15.7895-15.7826 15.7895-8.7067 0-15.7826-7.079-15.7826-15.7895s7.0759-15.7895 15.7826-15.7895"/>
  <path stroke="#022A3A" stroke-miterlimit="10" stroke-width="2.5" d="M68.3913 26.3158h34.1957M68.3913 36.8422h34.1957M68.3913 47.3684h21.0435"/>
</svg>
