<svg xmlns="http://www.w3.org/2000/svg" fill="none" viewBox="0 0 100 95">
  <path stroke="#022A3A" stroke-miterlimit="10" stroke-width="2.5" d="M24.8747 32.2534c.8334 4.4163-2.9583 8.2256-7.3541 7.3884-2.4375-.4604-4.4375-2.4698-4.9167-4.9395-.8333-4.4163 2.9583-8.2256 7.3542-7.3884 2.4375.4605 4.4375 2.4698 4.9166 4.9395Zm14.7083 7.5141c3.4518 0 6.25-2.8112 6.25-6.2791 0-3.4678-2.7982-6.279-6.25-6.279s-6.25 2.8112-6.25 6.279c0 3.4679 2.7982 6.2791 6.25 6.2791Z"/>
  <path stroke="#022A3A" stroke-miterlimit="10" stroke-width="2.5" d="M54.1663 41.8604v10.4651H4.16634V41.8604H2.08301V27.2093h2.08333v-4.1861c0-4.6256 3.72917-8.3721 8.33336-8.3721H45.833c4.6042 0 8.3333 3.7465 8.3333 8.3721v4.1861h2.0834v14.6511h-2.0834ZM29.166 14.6512V0"/>
  <path stroke="#05B444" stroke-linejoin="round" stroke-width="2.5" d="M39.583 10.4651V2.09302h58.3333V92.093H43.7497m47.917-83.72093H87.5m-4.1673 0H79.166m18.7503 6.27903H58.333"/>
  <path stroke="#022A3A" stroke-linejoin="round" stroke-width="2.5" d="M33.333 52.3256v8.3721h41.6667"/>
  <path stroke="#05B444" stroke-linejoin="round" stroke-width="2.5" d="M67.2285 55.7163c1.3542-1.5279 3.3333-2.4907 5.5417-2.4907 4.1041 0 7.4375 3.3488 7.4375 7.4721 0 4.1232-3.3334 7.4721-7.4375 7.4721-1.8959 0-3.625-.7117-4.9375-1.9047"/>
  <path stroke="#05B444" stroke-linejoin="round" stroke-width="2.5" d="M62.5 50.4419c2.6458-2.721 6.3333-4.3954 10.4167-4.3954 8.0625 0 14.5833 6.5512 14.5833 14.6512s-6.5208 14.6511-14.5833 14.6511c-3.9792 0-7.5834-1.5907-10.2084-4.186"/>
  <path stroke="#022A3A" stroke-miterlimit="10" stroke-width="2.5" d="M18.75 66.9768v25.1163h20.8333V66.9768"/>
  <path stroke="#022A3A" stroke-linejoin="round" stroke-width="2.5" d="M10.416 90V64.8837c0-2.3023 1.875-4.186 4.1667-4.186h10.4167v-8.3721"/>
</svg>
