<?xml version="1.0" encoding="utf-8"?>
<svg xmlns="http://www.w3.org/2000/svg" fill="#000" viewBox="0 0 199 42">
	<path d="M173.222 30.9778h2.16l2.38-6.2992h11.092l2.306 6.2992h2.307l-8.786-23.4756h-2.709l-8.75 23.4756Zm5.199-8.1304 2.745-7.2514c1.135-3.0031 2.233-6.00627 2.233-6.00627l2.124 5.96957 2.672 7.2881h-9.774ZM199 30.9778V7.5022h-2.197v23.4756H199Z"/>
	<g clip-path="url(#a)">
		<g mask="url(#b)">
			<path d="M55.8643 10.8831h5.4236l6.0166 15.1504 6.0291-15.1504h5.2219v20.234h-3.8849V17.2755l-5.6759 13.8416h-3.5948l-5.6508-13.8165v13.8165h-3.8848v-20.234Zm30.2465 20.7877L79.943 16.2309h4.0614l4.1118 10.9602 4.112-10.9602h4.0236l-8.249 20.6749h-3.9984l2.1064-5.235Z"/>
			<path d="m96.2138 27.5938 9.8262-13.1875h-9.8262V10.883h14.7192v3.5231l-9.825 13.1875h9.825v3.5233H96.2138v-3.5231Zm20.3452-.8557c.769.818 1.741 1.2332 2.901 1.2332 1.16 0 2.132-.4152 2.914-1.2332.782-.8179 1.173-1.8498 1.173-3.083 0-1.2331-.391-2.2273-1.173-3.0451-.782-.8179-1.754-1.2333-2.914-1.2333-1.16 0-2.119.4154-2.901 1.2333-.769.8178-1.16 1.8372-1.16 3.0451 0 1.2081.391 2.2651 1.16 3.083Zm-2.788-8.5693c1.527-1.4849 3.419-2.2272 5.676-2.2272 2.258 0 4.15.7423 5.676 2.2272 1.527 1.4848 2.296 3.3095 2.296 5.499 0 2.1894-.769 4.0393-2.296 5.5241-1.526 1.4847-3.418 2.2272-5.676 2.2272-2.257 0-4.149-.7425-5.676-2.2272-1.526-1.4848-2.295-3.322-2.295-5.5241 0-2.2022.757-4.0142 2.295-5.499Zm15.603-1.9379h3.771v1.9631c1.123-1.4974 2.687-2.2525 4.692-2.2525 1.779 0 3.23.5789 4.365 1.7364 1.135 1.1578 1.69 2.63 1.69 4.4169v9.0223h-3.771v-8.3554c0-1.0067-.328-1.8246-.972-2.4538-.643-.6417-1.488-.9562-2.51-.9562-1.021 0-1.867.3145-2.522.9562-.656.6419-.984 1.4598-.984 2.4538v8.3554h-3.772V16.2309h.013Zm28.165 5.9016c-.252-.8807-.731-1.5981-1.425-2.1516-.694-.5537-1.513-.818-2.459-.818-.947 0-1.766.2768-2.46.843-.694.5537-1.16 1.2709-1.388 2.1393h7.732v-.0127Zm-9.46-3.9637c1.502-1.4849 3.356-2.2272 5.576-2.2272 2.472 0 4.465.8933 5.978 2.6801 1.514 1.7869 2.094 3.9135 1.728 6.3798h-11.616c.226.9187.706 1.6864 1.425 2.2903.719.5915 1.627.8935 2.749.8935.833 0 1.577-.1888 2.246-.579.668-.39 1.198-.9185 1.576-1.5854l3.103 1.3842c-.681 1.2079-1.627 2.1894-2.851 2.9193-1.223.7299-2.623 1.0947-4.187 1.0947-2.258 0-4.15-.7425-5.676-2.2272-1.526-1.4848-2.296-3.322-2.296-5.5241 0-2.2022.745-4.0142 2.245-5.499ZM5.07058 26.0587c2.80001 0 5.07042-2.2651 5.07042-5.0586 0-5.5871 4.5408-10.1298 10.1411-10.1298h15.2241c2.8002 0 5.0706-2.26486 5.0706-5.0584 0-2.79371-2.2578-5.058604-5.0578-5.058604H20.2947c-2.7749 0-5.0327 2.227144-5.0706 4.995634v.12577c-.0378 5.5619-4.5659 10.0668-10.15352 10.0668C2.27039 15.9415 0 18.2067 0 21.0001c0 2.7933 2.27039 5.0586 5.07058 5.0586ZM35.519 15.9415c-2.8002 0-5.0706 2.265-5.0706 5.0586 0 5.587-4.5282 10.117-10.1284 10.1297H5.07058C2.27039 31.1298 0 33.3947 0 36.1882c0 2.7936 2.27039 5.0586 5.07058 5.0586H20.2947c2.8002 0 5.0706-2.265 5.0706-5.0586 0-5.5871 4.5408-10.1295 10.1409-10.1295 2.8002 0 5.0706-2.2651 5.0706-5.0586 0-2.7936-2.2704-5.0586-5.0706-5.0586h.0128Zm158.611-5.0962v20.2593h-1.867v-8.3807c0-3.3849.038-5.2221.102-7.9149l-6.661 15.7293h-1.841l-6.697-15.6663c.1 2.6928.15 4.5929.15 7.8519v8.3807h-1.903V10.8201h1.903l7.456 17.5916 7.416-17.5916 1.93.0377.012-.0125Zm17.066 6.4553V31.092h-1.678v-2.9067c-.857 1.9001-2.913 3.2967-5.613 3.2967-3.833 0-6.571-2.8815-6.571-7.2732 0-4.3916 2.788-7.2732 6.661-7.2732 2.598 0 4.69 1.2332 5.549 3.1585l.151-2.781h1.489l.012-.0125Zm-1.905 6.8075c0-3.4226-1.993-5.5744-5.007-5.5744-3.015 0-5.109 2.3154-5.109 5.6626 0 3.3471 2.031 5.6626 5.045 5.6626 3.015 0 5.071-2.2526 5.071-5.7633v.0125Zm4.756 3.2843h1.741c.126 1.6736 1.588 2.63 3.644 2.63 2.057 0 3.457-.9187 3.457-2.5293 0-1.7364-1.488-2.2146-2.536-2.4034l-2.572-.5664c-2.409-.541-3.368-1.9251-3.368-3.6365 0-2.3783 1.993-3.9512 4.944-3.9512 2.951 0 5.045 1.6736 5.108 4.14h-1.741c-.062-1.7366-1.425-2.6929-3.367-2.6929-1.943 0-3.103.818-3.103 2.3783 0 1.6484 1.425 2.0259 2.308 2.2147l2.851.6292c2.307.541 3.329 1.9881 3.329 3.7624 0 2.5293-2.056 4.1147-5.322 4.1147-3.267 0-5.26-1.6106-5.385-4.0769l.012-.0127Zm19.663-8.607h-2.787V31.092h-1.803V18.7854h-2.762v-1.4848h2.762v-3.6995h1.803v3.6993h2.787v1.485Zm8.187 12.6966c-4.15 0-6.912-2.9445-6.912-7.3109 0-4.3665 2.888-7.248 6.823-7.248 3.937 0 6.471 2.6928 6.471 6.4553 0 .692-.026 1.0066-.101 1.4219h-11.415c.127 3.1332 2.157 5.1591 5.134 5.1591 2.22 0 4.023-1.145 4.603-2.8438h1.805c-.669 2.6551-3.268 4.3664-6.408 4.3664Zm4.565-8.1036c-.038-2.9698-1.905-4.9076-4.666-4.9076-2.762 0-4.944 1.9253-5.045 4.9076h9.711Zm11.731-6.0778v1.4848c-3.203-.5034-5.07 1.2332-5.07 4.3665v7.9401h-1.841V17.3006h1.526l.289 2.2523c.48-1.5226 1.93-2.4033 3.746-2.4033.506 0 1.01.0628 1.363.1635l-.013-.0125Zm14.013 0L265.9 34.0113c-.984 2.4411-2.283 3.3221-4.441 3.3221-.604 0-1.399-.1008-1.905-.2518V35.559c.253.063.795.2267 1.616.2267 1.803 0 2.473-.7299 3.015-2.1518l.605-1.6484-5.903-14.6849h1.905l4.855 12.3695 4.629-12.3695h1.93Z"/>
		</g>
	</g>
	<defs>
		<clipPath id="a">
			<path d="M0 .753296h166.473v40.4935H0z"/>
		</clipPath>
	</defs>
</svg>